# Blender v2.77 (sub 0) OBJ File: 'arrow.blend'
# www.blender.org
mtllib arrow.mtl
v 0.089530 0.987000 -0.096009
v -0.089530 0.987000 0.096009
v 0.078573 0.997885 -0.106227
v -0.100487 0.997885 0.085792
v 0.082758 1.015498 -0.102324
v -0.096302 1.015498 0.089694
v 0.096302 1.015498 -0.089694
v -0.082758 1.015498 0.102324
v 0.100487 0.997885 -0.085792
v -0.078573 0.997885 0.106227
vn -0.4299 -0.8090 -0.4009
vn -0.6956 0.3090 -0.6486
vn 0.0000 1.0000 0.0000
vn -0.6820 0.0000 0.7314
vn 0.6956 0.3090 0.6486
vn 0.4299 -0.8090 0.4009
vn 0.6820 0.0000 -0.7314
g Cylinder.002_Cylinder.003_None
usemtl None
s off
f 1//1 4//1 3//1
f 3//2 6//2 5//2
f 5//3 8//3 7//3
f 2//4 8//4 6//4
f 7//5 10//5 9//5
f 10//6 1//6 9//6
f 3//7 7//7 1//7
f 1//1 2//1 4//1
f 3//2 4//2 6//2
f 5//3 6//3 8//3
f 6//4 4//4 2//4
f 2//4 10//4 8//4
f 7//5 8//5 10//5
f 10//6 2//6 1//6
f 9//7 1//7 7//7
f 3//7 5//7 7//7
v 0.092826 0.984247 0.092826
v -0.092826 0.984247 -0.092826
v 0.103420 0.995132 0.082232
v -0.082232 0.995132 -0.103420
v 0.099374 1.012745 0.086279
v -0.086279 1.012745 -0.099374
v 0.086279 1.012745 0.099374
v -0.099374 1.012745 -0.086279
v 0.082232 0.995132 0.103420
v -0.103420 0.995132 -0.082232
vn 0.4156 -0.8090 -0.4156
vn 0.6725 0.3090 -0.6725
vn 0.0000 1.0000 -0.0000
vn -0.7071 0.0000 -0.7071
vn -0.6725 0.3090 0.6725
vn -0.4156 -0.8090 0.4156
vn 0.7071 -0.0000 0.7071
g Cylinder.001_Cylinder.002_None
usemtl None
s off
f 11//8 14//8 13//8
f 14//9 15//9 13//9
f 16//10 17//10 15//10
f 12//11 18//11 16//11
f 17//12 20//12 19//12
f 20//13 11//13 19//13
f 13//14 17//14 11//14
f 11//8 12//8 14//8
f 14//9 16//9 15//9
f 16//10 18//10 17//10
f 16//11 14//11 12//11
f 12//11 20//11 18//11
f 17//12 18//12 20//12
f 20//13 12//13 11//13
f 19//14 11//14 17//14
f 13//14 15//14 17//14
v 0.000000 1.002753 0.060000
v 0.000000 0.002753 0.060000
v 0.057063 1.002753 0.018541
v 0.057063 0.002753 0.018541
v 0.035267 1.002753 -0.048541
v 0.035267 0.002753 -0.048541
v -0.035267 1.002753 -0.048541
v -0.035267 0.002753 -0.048541
v -0.057063 1.002753 0.018541
v -0.057063 0.002753 0.018541
vn 0.5878 0.0000 0.8090
vn 0.9511 -0.0000 -0.3090
vn -0.0000 -0.0000 -1.0000
vn 0.0000 -1.0000 0.0000
vn -0.9511 -0.0000 -0.3090
vn -0.5878 0.0000 0.8090
vn 0.0000 1.0000 0.0000
g Cylinder_Cylinder_Material.001
usemtl Material.001
s off
f 22//15 23//15 21//15
f 24//16 25//16 23//16
f 26//17 27//17 25//17
f 22//18 28//18 26//18
f 28//19 29//19 27//19
f 30//20 21//20 29//20
f 25//21 27//21 29//21
f 22//15 24//15 23//15
f 24//16 26//16 25//16
f 26//17 28//17 27//17
f 26//18 24//18 22//18
f 22//18 30//18 28//18
f 28//19 30//19 29//19
f 30//20 22//20 21//20
f 29//21 21//21 23//21
f 23//21 25//21 29//21
